<svg xmlns="http://www.w3.org/2000/svg" width="48" height="48" viewBox="0 0 80 80" fill="none">
  <defs>
    <radialGradient id="fv-sphere" cx="35%" cy="28%" r="65%">
      <stop offset="0%" stop-color="#a8c4ff"/>
      <stop offset="18%" stop-color="#4a6ee8"/>
      <stop offset="52%" stop-color="#1f3a8a"/>
      <stop offset="100%" stop-color="#0a1442"/>
    </radialGradient>
    <radialGradient id="fv-dog" cx="40%" cy="30%" r="65%">
      <stop offset="0%" stop-color="#fde68a"/>
      <stop offset="55%" stop-color="#f59e0b"/>
      <stop offset="100%" stop-color="#b45309"/>
    </radialGradient>
    <radialGradient id="fv-snout" cx="50%" cy="35%" r="60%">
      <stop offset="0%" stop-color="#fef3c7"/>
      <stop offset="100%" stop-color="#fbbf24"/>
    </radialGradient>
    <linearGradient id="fv-ring" x1="0%" y1="0%" x2="100%" y2="0%">
      <stop offset="0%" stop-color="#ffffff" stop-opacity="0.9"/>
      <stop offset="15%" stop-color="#f5b300"/>
      <stop offset="35%" stop-color="#a78bfa"/>
      <stop offset="55%" stop-color="#4a6ee8"/>
      <stop offset="75%" stop-color="#f5b300"/>
      <stop offset="100%" stop-color="#ffffff" stop-opacity="0.9"/>
    </linearGradient>
  </defs>
  <circle cx="40" cy="40" r="32" fill="rgba(74,110,232,0.18)"/>
  <path d="M 4 40 A 36 12 0 0 0 76 40" stroke="url(#fv-ring)" stroke-width="2.8" fill="none" stroke-linecap="round" opacity="0.75"/>
  <circle cx="40" cy="40" r="28" fill="url(#fv-sphere)"/>
  <ellipse cx="40" cy="39" rx="19" ry="20" fill="url(#fv-dog)"/>
  <ellipse cx="24.5" cy="25" rx="5.5" ry="6.5" fill="#d97706"/>
  <ellipse cx="55.5" cy="25" rx="5.5" ry="6.5" fill="#d97706"/>
  <path d="M 28 30 Q 35 26 40 28.5" stroke="#92400e" stroke-width="1.6" fill="none" stroke-linecap="round"/>
  <path d="M 52 30 Q 45 26 40 28.5" stroke="#92400e" stroke-width="1.6" fill="none" stroke-linecap="round"/>
  <circle cx="33.5" cy="35" r="4.2" fill="white"/>
  <circle cx="46.5" cy="35" r="4.2" fill="white"/>
  <circle cx="34" cy="35.5" r="2.5" fill="#1a0a00"/>
  <circle cx="47" cy="35.5" r="2.5" fill="#1a0a00"/>
  <circle cx="32.8" cy="34.2" r="0.9" fill="white"/>
  <circle cx="45.8" cy="34.2" r="0.9" fill="white"/>
  <ellipse cx="40" cy="47.5" rx="12" ry="8.5" fill="url(#fv-snout)"/>
  <ellipse cx="40" cy="43" rx="5.5" ry="3.2" fill="#1a0a00"/>
  <path d="M 32 51.5 Q 36 55 40 54.5 Q 44 55 48 51.5" stroke="#92400e" stroke-width="1.4" fill="none" stroke-linecap="round"/>
  <path d="M 28 58 Q 40 64 52 58" stroke="#1f3a8a" stroke-width="3.5" fill="none" stroke-linecap="round"/>
  <path d="M 4 40 A 36 12 0 0 1 76 40" stroke="url(#fv-ring)" stroke-width="2.8" fill="none" stroke-linecap="round"/>
  <ellipse cx="33" cy="27" rx="8" ry="5" fill="rgba(255,255,255,0.28)"/>
</svg>
